Bitcount_Prop_Single-Italic.ufo
<glyph name="px.ix-1.iy-3" format="2">
  <advance width="100"/>
  <outline>
    <contour>
      <point x="-84" y="-300" type="curve" smooth="yes"/>
      <point x="-56" y="-300"/>
      <point x="-34" y="-278"/>
      <point x="-34" y="-250" type="curve" smooth="yes"/>
      <point x="-34" y="-222"/>
      <point x="-56" y="-200"/>
      <point x="-84" y="-200" type="curve" smooth="yes"/>
      <point x="-112" y="-200"/>
      <point x="-134" y="-222"/>
      <point x="-134" y="-250" type="curve" smooth="yes"/>
      <point x="-134" y="-278"/>
      <point x="-112" y="-300"/>
    </contour>
  </outline>
</glyph>
<glyph name="px.ix-1.iy0" format="2">
  <advance width="100"/>
  <outline>
    <contour>
      <point x="-42" y="0" type="curve" smooth="yes"/>
      <point x="-14" y="0"/>
      <point x="8" y="22"/>
      <point x="8" y="50" type="curve" smooth="yes"/>
      <point x="8" y="78"/>
      <point x="-14" y="100"/>
      <point x="-42" y="100" type="curve" smooth="yes"/>
      <point x="-70" y="100"/>
      <point x="-92" y="78"/>
      <point x="-92" y="50" type="curve" smooth="yes"/>
      <point x="-92" y="22"/>
      <point x="-70" y="0"/>
    </contour>
  </outline>
</glyph>
<glyph name="px.ix-1.iy1" format="2">
  <advance width="100"/>
  <outline>
    <contour>
      <point x="-28" y="100" type="curve" smooth="yes"/>
      <point x="0" y="100"/>
      <point x="22" y="122"/>
      <point x="22" y="150" type="curve" smooth="yes"/>
      <point x="22" y="178"/>
      <point x="0" y="200"/>
      <point x="-28" y="200" type="curve" smooth="yes"/>
      <point x="-56" y="200"/>
      <point x="-78" y="178"/>
      <point x="-78" y="150" type="curve" smooth="yes"/>
      <point x="-78" y="122"/>
      <point x="-56" y="100"/>
    </contour>
  </outline>
</glyph>
<glyph name="px.ix-1.iy2" format="2">
  <advance width="100"/>
  <outline>
    <contour>
      <point x="-14" y="200" type="curve" smooth="yes"/>
      <point x="14" y="200"/>
      <point x="36" y="222"/>
      <point x="36" y="250" type="curve" smooth="yes"/>
      <point x="36" y="278"/>
      <point x="14" y="300"/>
      <point x="-14" y="300" type="curve" smooth="yes"/>
      <point x="-42" y="300"/>
      <point x="-64" y="278"/>
      <point x="-64" y="250" type="curve" smooth="yes"/>
      <point x="-64" y="222"/>
      <point x="-42" y="200"/>
    </contour>
  </outline>
</glyph>
<glyph name="px.ix-1.iy4" format="2">
  <advance width="100"/>
  <outline>
    <contour>
      <point x="14" y="400" type="curve" smooth="yes"/>
      <point x="42" y="400"/>
      <point x="64" y="422"/>
      <point x="64" y="450" type="curve" smooth="yes"/>
      <point x="64" y="478"/>
      <point x="42" y="500"/>
      <point x="14" y="500" type="curve" smooth="yes"/>
      <point x="-14" y="500"/>
      <point x="-36" y="478"/>
      <point x="-36" y="450" type="curve" smooth="yes"/>
      <point x="-36" y="422"/>
      <point x="-14" y="400"/>
    </contour>
  </outline>
</glyph>
<glyph name="px.ix-1.iy5" format="2">
  <advance width="100"/>
  <outline>
    <contour>
      <point x="28" y="500" type="curve" smooth="yes"/>
      <point x="56" y="500"/>
      <point x="78" y="522"/>
      <point x="78" y="550" type="curve" smooth="yes"/>
      <point x="78" y="578"/>
      <point x="56" y="600"/>
      <point x="28" y="600" type="curve" smooth="yes"/>
      <point x="0" y="600"/>
      <point x="-22" y="578"/>
      <point x="-22" y="550" type="curve" smooth="yes"/>
      <point x="-22" y="522"/>
      <point x="0" y="500"/>
    </contour>
  </outline>
</glyph>
<glyph name="px.ix-1.iy6" format="2">
  <advance width="100"/>
  <outline>
    <contour>
      <point x="42" y="600" type="curve" smooth="yes"/>
      <point x="70" y="600"/>
      <point x="92" y="622"/>
      <point x="92" y="650" type="curve" smooth="yes"/>
      <point x="92" y="678"/>
      <point x="70" y="700"/>
      <point x="42" y="700" type="curve" smooth="yes"/>
      <point x="14" y="700"/>
      <point x="-8" y="678"/>
      <point x="-8" y="650" type="curve" smooth="yes"/>
      <point x="-8" y="622"/>
      <point x="14" y="600"/>
    </contour>
  </outline>
</glyph>
<glyph name="px.ix-1.iy7" format="2">
  <advance width="100"/>
  <outline>
    <contour>
      <point x="56" y="700" type="curve" smooth="yes"/>
      <point x="84" y="700"/>
      <point x="106" y="722"/>
      <point x="106" y="750" type="curve" smooth="yes"/>
      <point x="106" y="778"/>
      <point x="84" y="800"/>
      <point x="56" y="800" type="curve" smooth="yes"/>
      <point x="28" y="800"/>
      <point x="6" y="778"/>
      <point x="6" y="750" type="curve" smooth="yes"/>
      <point x="6" y="722"/>
      <point x="28" y="700"/>
    </contour>
  </outline>
</glyph>
<glyph name="px.ix-1.iy8" format="2">
  <advance width="100"/>
  <outline>
    <contour>
      <point x="70" y="800" type="curve" smooth="yes"/>
      <point x="98" y="800"/>
      <point x="120" y="822"/>
      <point x="120" y="850" type="curve" smooth="yes"/>
      <point x="120" y="878"/>
      <point x="98" y="900"/>
      <point x="70" y="900" type="curve" smooth="yes"/>
      <point x="42" y="900"/>
      <point x="20" y="878"/>
      <point x="20" y="850" type="curve" smooth="yes"/>
      <point x="20" y="822"/>
      <point x="42" y="800"/>
    </contour>
  </outline>
</glyph>
<glyph name="px.ix-1.iy9" format="2">
  <advance width="100"/>
  <outline>
    <contour>
      <point x="84" y="900" type="curve" smooth="yes"/>
      <point x="112" y="900"/>
      <point x="134" y="922"/>
      <point x="134" y="950" type="curve" smooth="yes"/>
      <point x="134" y="978"/>
      <point x="112" y="1000"/>
      <point x="84" y="1000" type="curve" smooth="yes"/>
      <point x="56" y="1000"/>
      <point x="34" y="978"/>
      <point x="34" y="950" type="curve" smooth="yes"/>
      <point x="34" y="922"/>
      <point x="56" y="900"/>
    </contour>
  </outline>
</glyph>
<glyph name="px.ix0.iy-1" format="2">
  <advance width="100"/>
  <outline>
    <contour>
      <point x="44" y="-100" type="curve" smooth="yes"/>
      <point x="72" y="-100"/>
      <point x="94" y="-78"/>
      <point x="94" y="-50" type="curve" smooth="yes"/>
      <point x="94" y="-22"/>
      <point x="72" y="0"/>
      <point x="44" y="0" type="curve" smooth="yes"/>
      <point x="16" y="0"/>
      <point x="-6" y="-22"/>
      <point x="-6" y="-50" type="curve" smooth="yes"/>
      <point x="-6" y="-78"/>
      <point x="16" y="-100"/>
    </contour>
  </outline>
</glyph>
<glyph name="px.ix0.iy-2" format="2">
  <advance width="100"/>
  <outline>
    <contour>
      <point x="30" y="-200" type="curve" smooth="yes"/>
      <point x="58" y="-200"/>
      <point x="80" y="-178"/>
      <point x="80" y="-150" type="curve" smooth="yes"/>
      <point x="80" y="-122"/>
      <point x="58" y="-100"/>
      <point x="30" y="-100" type="curve" smooth="yes"/>
      <point x="2" y="-100"/>
      <point x="-20" y="-122"/>
      <point x="-20" y="-150" type="curve" smooth="yes"/>
      <point x="-20" y="-178"/>
      <point x="2" y="-200"/>
    </contour>
  </outline>
</glyph>
<glyph name="px.ix0.iy-3" format="2">
  <advance width="100"/>
  <outline>
    <contour>
      <point x="16" y="-300" type="curve" smooth="yes"/>
      <point x="44" y="-300"/>
      <point x="66" y="-278"/>
      <point x="66" y="-250" type="curve" smooth="yes"/>
      <point x="66" y="-222"/>
      <point x="44" y="-200"/>
      <point x="16" y="-200" type="curve" smooth="yes"/>
      <point x="-12" y="-200"/>
      <point x="-34" y="-222"/>
      <point x="-34" y="-250" type="curve" smooth="yes"/>
      <point x="-34" y="-278"/>
      <point x="-12" y="-300"/>
    </contour>
  </outline>
</glyph>
<glyph name="px.ix0.iy2" format="2">
  <advance width="100"/>
  <outline>
    <contour>
      <point x="86" y="200" type="curve" smooth="yes"/>
      <point x="114" y="200"/>
      <point x="136" y="222"/>
      <point x="136" y="250" type="curve" smooth="yes"/>
      <point x="136" y="278"/>
      <point x="114" y="300"/>
      <point x="86" y="300" type="curve" smooth="yes"/>
      <point x="58" y="300"/>
      <point x="36" y="278"/>
      <point x="36" y="250" type="curve" smooth="yes"/>
      <point x="36" y="222"/>
      <point x="58" y="200"/>
    </contour>
  </outline>
</glyph>
<glyph name="px.ix0.iy5" format="2">
  <advance width="100"/>
  <outline>
    <contour>
      <point x="128" y="500" type="curve" smooth="yes"/>
      <point x="156" y="500"/>
      <point x="178" y="522"/>
      <point x="178" y="550" type="curve" smooth="yes"/>
      <point x="178" y="578"/>
      <point x="156" y="600"/>
      <point x="128" y="600" type="curve" smooth="yes"/>
      <point x="100" y="600"/>
      <point x="78" y="578"/>
      <point x="78" y="550" type="curve" smooth="yes"/>
      <point x="78" y="522"/>
      <point x="100" y="500"/>
    </contour>
  </outline>
</glyph>
<glyph name="px.ix0.iy6" format="2">
  <advance width="100"/>
  <outline>
    <contour>
      <point x="142" y="600" type="curve" smooth="yes"/>
      <point x="170" y="600"/>
      <point x="192" y="622"/>
      <point x="192" y="650" type="curve" smooth="yes"/>
      <point x="192" y="678"/>
      <point x="170" y="700"/>
      <point x="142" y="700" type="curve" smooth="yes"/>
      <point x="114" y="700"/>
      <point x="92" y="678"/>
      <point x="92" y="650" type="curve" smooth="yes"/>
      <point x="92" y="622"/>
      <point x="114" y="600"/>
    </contour>
  </outline>
</glyph>
<glyph name="px.ix0.iy7" format="2">
  <advance width="100"/>
  <outline>
    <contour>
      <point x="156" y="700" type="curve" smooth="yes"/>
      <point x="184" y="700"/>
      <point x="206" y="722"/>
      <point x="206" y="750" type="curve" smooth="yes"/>
      <point x="206" y="778"/>
      <point x="184" y="800"/>
      <point x="156" y="800" type="curve" smooth="yes"/>
      <point x="128" y="800"/>
      <point x="106" y="778"/>
      <point x="106" y="750" type="curve" smooth="yes"/>
      <point x="106" y="722"/>
      <point x="128" y="700"/>
    </contour>
  </outline>
</glyph>
<glyph name="px.ix0.iy8" format="2">
  <advance width="100"/>
  <outline>
    <contour>
      <point x="170" y="800" type="curve" smooth="yes"/>
      <point x="198" y="800"/>
      <point x="220" y="822"/>
      <point x="220" y="850" type="curve" smooth="yes"/>
      <point x="220" y="878"/>
      <point x="198" y="900"/>
      <point x="170" y="900" type="curve" smooth="yes"/>
      <point x="142" y="900"/>
      <point x="120" y="878"/>
      <point x="120" y="850" type="curve" smooth="yes"/>
      <point x="120" y="822"/>
      <point x="142" y="800"/>
    </contour>
  </outline>
</glyph>
<glyph name="px.ix0.iy9" format="2">
  <advance width="100"/>
  <outline>
    <contour>
      <point x="184" y="900" type="curve" smooth="yes"/>
      <point x="212" y="900"/>
      <point x="234" y="922"/>
      <point x="234" y="950" type="curve" smooth="yes"/>
      <point x="234" y="978"/>
      <point x="212" y="1000"/>
      <point x="184" y="1000" type="curve" smooth="yes"/>
      <point x="156" y="1000"/>
      <point x="134" y="978"/>
      <point x="134" y="950" type="curve" smooth="yes"/>
      <point x="134" y="922"/>
      <point x="156" y="900"/>
    </contour>
  </outline>
</glyph>
<glyph name="px.ix1.iy-1" format="2">
  <advance width="100"/>
  <outline>
    <contour>
      <point x="144" y="-100" type="curve" smooth="yes"/>
      <point x="172" y="-100"/>
      <point x="194" y="-78"/>
      <point x="194" y="-50" type="curve" smooth="yes"/>
      <point x="194" y="-22"/>
      <point x="172" y="0"/>
      <point x="144" y="0" type="curve" smooth="yes"/>
      <point x="116" y="0"/>
      <point x="94" y="-22"/>
      <point x="94" y="-50" type="curve" smooth="yes"/>
      <point x="94" y="-78"/>
      <point x="116" y="-100"/>
    </contour>
  </outline>
</glyph>
<glyph name="px.ix1.iy1" format="2">
  <advance width="100"/>
  <outline>
    <contour>
      <point x="172" y="100" type="curve" smooth="yes"/>
      <point x="200" y="100"/>
      <point x="222" y="122"/>
      <point x="222" y="150" type="curve" smooth="yes"/>
      <point x="222" y="178"/>
      <point x="200" y="200"/>
      <point x="172" y="200" type="curve" smooth="yes"/>
      <point x="144" y="200"/>
      <point x="122" y="178"/>
      <point x="122" y="150" type="curve" smooth="yes"/>
      <point x="122" y="122"/>
      <point x="144" y="100"/>
    </contour>
  </outline>
</glyph>
<glyph name="px.ix1.iy2" format="2">
  <advance width="100"/>
  <outline>
    <contour>
      <point x="186" y="200" type="curve" smooth="yes"/>
      <point x="214" y="200"/>
      <point x="236" y="222"/>
      <point x="236" y="250" type="curve" smooth="yes"/>
      <point x="236" y="278"/>
      <point x="214" y="300"/>
      <point x="186" y="300" type="curve" smooth="yes"/>
      <point x="158" y="300"/>
      <point x="136" y="278"/>
      <point x="136" y="250" type="curve" smooth="yes"/>
      <point x="136" y="222"/>
      <point x="158" y="200"/>
    </contour>
  </outline>
</glyph>
<glyph name="px.ix1.iy3" format="2">
  <advance width="100"/>
  <outline>
    <contour>
      <point x="200" y="300" type="curve" smooth="yes"/>
      <point x="228" y="300"/>
      <point x="250" y="322"/>
      <point x="250" y="350" type="curve" smooth="yes"/>
      <point x="250" y="378"/>
      <point x="228" y="400"/>
      <point x="200" y="400" type="curve" smooth="yes"/>
      <point x="172" y="400"/>
      <point x="150" y="378"/>
      <point x="150" y="350" type="curve" smooth="yes"/>
      <point x="150" y="322"/>
      <point x="172" y="300"/>
    </contour>
  </outline>
</glyph>
<glyph name="px.ix1.iy4" format="2">
  <advance width="100"/>
  <outline>
    <contour>
      <point x="214" y="400" type="curve" smooth="yes"/>
      <point x="242" y="400"/>
      <point x="264" y="422"/>
      <point x="264" y="450" type="curve" smooth="yes"/>
      <point x="264" y="478"/>
      <point x="242" y="500"/>
      <point x="214" y="500" type="curve" smooth="yes"/>
      <point x="186" y="500"/>
      <point x="164" y="478"/>
      <point x="164" y="450" type="curve" smooth="yes"/>
      <point x="164" y="422"/>
      <point x="186" y="400"/>
    </contour>
  </outline>
</glyph>
<glyph name="px.ix1.iy7" format="2">
  <advance width="100"/>
  <outline>
    <contour>
      <point x="256" y="700" type="curve" smooth="yes"/>
      <point x="284" y="700"/>
      <point x="306" y="722"/>
      <point x="306" y="750" type="curve" smooth="yes"/>
      <point x="306" y="778"/>
      <point x="284" y="800"/>
      <point x="256" y="800" type="curve" smooth="yes"/>
      <point x="228" y="800"/>
      <point x="206" y="778"/>
      <point x="206" y="750" type="curve" smooth="yes"/>
      <point x="206" y="722"/>
      <point x="228" y="700"/>
    </contour>
  </outline>
</glyph>
<glyph name="px.ix1.iy8" format="2">
  <advance width="100"/>
  <outline>
    <contour>
      <point x="270" y="800" type="curve" smooth="yes"/>
      <point x="298" y="800"/>
      <point x="320" y="822"/>
      <point x="320" y="850" type="curve" smooth="yes"/>
      <point x="320" y="878"/>
      <point x="298" y="900"/>
      <point x="270" y="900" type="curve" smooth="yes"/>
      <point x="242" y="900"/>
      <point x="220" y="878"/>
      <point x="220" y="850" type="curve" smooth="yes"/>
      <point x="220" y="822"/>
      <point x="242" y="800"/>
    </contour>
  </outline>
</glyph>
<glyph name="px.ix1.iy9" format="2">
  <advance width="100"/>
  <outline>
    <contour>
      <point x="284" y="900" type="curve" smooth="yes"/>
      <point x="312" y="900"/>
      <point x="334" y="922"/>
      <point x="334" y="950" type="curve" smooth="yes"/>
      <point x="334" y="978"/>
      <point x="312" y="1000"/>
      <point x="284" y="1000" type="curve" smooth="yes"/>
      <point x="256" y="1000"/>
      <point x="234" y="978"/>
      <point x="234" y="950" type="curve" smooth="yes"/>
      <point x="234" y="922"/>
      <point x="256" y="900"/>
    </contour>
  </outline>
</glyph>
<glyph name="px.ix2.iy-2" format="2">
  <advance width="100"/>
  <outline>
    <contour>
      <point x="230" y="-200" type="curve" smooth="yes"/>
      <point x="258" y="-200"/>
      <point x="280" y="-178"/>
      <point x="280" y="-150" type="curve" smooth="yes"/>
      <point x="280" y="-122"/>
      <point x="258" y="-100"/>
      <point x="230" y="-100" type="curve" smooth="yes"/>
      <point x="202" y="-100"/>
      <point x="180" y="-122"/>
      <point x="180" y="-150" type="curve" smooth="yes"/>
      <point x="180" y="-178"/>
      <point x="202" y="-200"/>
    </contour>
  </outline>
</glyph>
<glyph name="px.ix2.iy-3" format="2">
  <advance width="100"/>
  <outline>
    <contour>
      <point x="216" y="-300" type="curve" smooth="yes"/>
      <point x="244" y="-300"/>
      <point x="266" y="-278"/>
      <point x="266" y="-250" type="curve" smooth="yes"/>
      <point x="266" y="-222"/>
      <point x="244" y="-200"/>
      <point x="216" y="-200" type="curve" smooth="yes"/>
      <point x="188" y="-200"/>
      <point x="166" y="-222"/>
      <point x="166" y="-250" type="curve" smooth="yes"/>
      <point x="166" y="-278"/>
      <point x="188" y="-300"/>
    </contour>
  </outline>
</glyph>
<glyph name="px.ix2.iy2" format="2">
  <advance width="100"/>
  <outline>
    <contour>
      <point x="286" y="200" type="curve" smooth="yes"/>
      <point x="314" y="200"/>
      <point x="336" y="222"/>
      <point x="336" y="250" type="curve" smooth="yes"/>
      <point x="336" y="278"/>
      <point x="314" y="300"/>
      <point x="286" y="300" type="curve" smooth="yes"/>
      <point x="258" y="300"/>
      <point x="236" y="278"/>
      <point x="236" y="250" type="curve" smooth="yes"/>
      <point x="236" y="222"/>
      <point x="258" y="200"/>
    </contour>
  </outline>
</glyph>
<glyph name="px.ix2.iy3" format="2">
  <advance width="100"/>
  <outline>
    <contour>
      <point x="300" y="300" type="curve" smooth="yes"/>
      <point x="328" y="300"/>
      <point x="350" y="322"/>
      <point x="350" y="350" type="curve" smooth="yes"/>
      <point x="350" y="378"/>
      <point x="328" y="400"/>
      <point x="300" y="400" type="curve" smooth="yes"/>
      <point x="272" y="400"/>
      <point x="250" y="378"/>
      <point x="250" y="350" type="curve" smooth="yes"/>
      <point x="250" y="322"/>
      <point x="272" y="300"/>
    </contour>
  </outline>
</glyph>
<glyph name="px.ix2.iy5" format="2">
  <advance width="100"/>
  <outline>
    <contour>
      <point x="328" y="500" type="curve" smooth="yes"/>
      <point x="356" y="500"/>
      <point x="378" y="522"/>
      <point x="378" y="550" type="curve" smooth="yes"/>
      <point x="378" y="578"/>
      <point x="356" y="600"/>
      <point x="328" y="600" type="curve" smooth="yes"/>
      <point x="300" y="600"/>
      <point x="278" y="578"/>
      <point x="278" y="550" type="curve" smooth="yes"/>
      <point x="278" y="522"/>
      <point x="300" y="500"/>
    </contour>
  </outline>
</glyph>
<glyph name="px.ix2.iy7" format="2">
  <advance width="100"/>
  <outline>
    <contour>
      <point x="356" y="700" type="curve" smooth="yes"/>
      <point x="384" y="700"/>
      <point x="406" y="722"/>
      <point x="406" y="750" type="curve" smooth="yes"/>
      <point x="406" y="778"/>
      <point x="384" y="800"/>
      <point x="356" y="800" type="curve" smooth="yes"/>
      <point x="328" y="800"/>
      <point x="306" y="778"/>
      <point x="306" y="750" type="curve" smooth="yes"/>
      <point x="306" y="722"/>
      <point x="328" y="700"/>
    </contour>
  </outline>
</glyph>
<glyph name="px.ix2.iy8" format="2">
  <advance width="100"/>
  <outline>
    <contour>
      <point x="370" y="800" type="curve" smooth="yes"/>
      <point x="398" y="800"/>
      <point x="420" y="822"/>
      <point x="420" y="850" type="curve" smooth="yes"/>
      <point x="420" y="878"/>
      <point x="398" y="900"/>
      <point x="370" y="900" type="curve" smooth="yes"/>
      <point x="342" y="900"/>
      <point x="320" y="878"/>
      <point x="320" y="850" type="curve" smooth="yes"/>
      <point x="320" y="822"/>
      <point x="342" y="800"/>
    </contour>
  </outline>
</glyph>
<glyph name="px.ix3.iy-2" format="2">
  <advance width="100"/>
  <outline>
    <contour>
      <point x="330" y="-200" type="curve" smooth="yes"/>
      <point x="358" y="-200"/>
      <point x="380" y="-178"/>
      <point x="380" y="-150" type="curve" smooth="yes"/>
      <point x="380" y="-122"/>
      <point x="358" y="-100"/>
      <point x="330" y="-100" type="curve" smooth="yes"/>
      <point x="302" y="-100"/>
      <point x="280" y="-122"/>
      <point x="280" y="-150" type="curve" smooth="yes"/>
      <point x="280" y="-178"/>
      <point x="302" y="-200"/>
    </contour>
  </outline>
</glyph>
<glyph name="px.ix3.iy-3" format="2">
  <advance width="100"/>
  <outline>
    <contour>
      <point x="316" y="-300" type="curve" smooth="yes"/>
      <point x="344" y="-300"/>
      <point x="366" y="-278"/>
      <point x="366" y="-250" type="curve" smooth="yes"/>
      <point x="366" y="-222"/>
      <point x="344" y="-200"/>
      <point x="316" y="-200" type="curve" smooth="yes"/>
      <point x="288" y="-200"/>
      <point x="266" y="-222"/>
      <point x="266" y="-250" type="curve" smooth="yes"/>
      <point x="266" y="-278"/>
      <point x="288" y="-300"/>
    </contour>
  </outline>
</glyph>
<glyph name="px.ix3.iy0" format="2">
  <advance width="100"/>
  <outline>
    <contour>
      <point x="358" y="0" type="curve" smooth="yes"/>
      <point x="386" y="0"/>
      <point x="408" y="22"/>
      <point x="408" y="50" type="curve" smooth="yes"/>
      <point x="408" y="78"/>
      <point x="386" y="100"/>
      <point x="358" y="100" type="curve" smooth="yes"/>
      <point x="330" y="100"/>
      <point x="308" y="78"/>
      <point x="308" y="50" type="curve" smooth="yes"/>
      <point x="308" y="22"/>
      <point x="330" y="0"/>
    </contour>
  </outline>
</glyph>
<glyph name="px.ix3.iy1" format="2">
  <advance width="100"/>
  <outline>
    <contour>
      <point x="372" y="100" type="curve" smooth="yes"/>
      <point x="400" y="100"/>
      <point x="422" y="122"/>
      <point x="422" y="150" type="curve" smooth="yes"/>
      <point x="422" y="178"/>
      <point x="400" y="200"/>
      <point x="372" y="200" type="curve" smooth="yes"/>
      <point x="344" y="200"/>
      <point x="322" y="178"/>
      <point x="322" y="150" type="curve" smooth="yes"/>
      <point x="322" y="122"/>
      <point x="344" y="100"/>
    </contour>
  </outline>
</glyph>
<glyph name="px.ix3.iy4" format="2">
  <advance width="100"/>
  <outline>
    <contour>
      <point x="414" y="400" type="curve" smooth="yes"/>
      <point x="442" y="400"/>
      <point x="464" y="422"/>
      <point x="464" y="450" type="curve" smooth="yes"/>
      <point x="464" y="478"/>
      <point x="442" y="500"/>
      <point x="414" y="500" type="curve" smooth="yes"/>
      <point x="386" y="500"/>
      <point x="364" y="478"/>
      <point x="364" y="450" type="curve" smooth="yes"/>
      <point x="364" y="422"/>
      <point x="386" y="400"/>
    </contour>
  </outline>
</glyph>
<glyph name="px.ix3.iy7" format="2">
  <advance width="100"/>
  <outline>
    <contour>
      <point x="456" y="700" type="curve" smooth="yes"/>
      <point x="484" y="700"/>
      <point x="506" y="722"/>
      <point x="506" y="750" type="curve" smooth="yes"/>
      <point x="506" y="778"/>
      <point x="484" y="800"/>
      <point x="456" y="800" type="curve" smooth="yes"/>
      <point x="428" y="800"/>
      <point x="406" y="778"/>
      <point x="406" y="750" type="curve" smooth="yes"/>
      <point x="406" y="722"/>
      <point x="428" y="700"/>
    </contour>
  </outline>
</glyph>
<glyph name="px.ix4.iy-2" format="2">
  <advance width="100"/>
  <outline>
    <contour>
      <point x="430" y="-200" type="curve" smooth="yes"/>
      <point x="458" y="-200"/>
      <point x="480" y="-178"/>
      <point x="480" y="-150" type="curve" smooth="yes"/>
      <point x="480" y="-122"/>
      <point x="458" y="-100"/>
      <point x="430" y="-100" type="curve" smooth="yes"/>
      <point x="402" y="-100"/>
      <point x="380" y="-122"/>
      <point x="380" y="-150" type="curve" smooth="yes"/>
      <point x="380" y="-178"/>
      <point x="402" y="-200"/>
    </contour>
  </outline>
</glyph>
<glyph name="px.ix4.iy-3" format="2">
  <advance width="100"/>
  <outline>
    <contour>
      <point x="416" y="-300" type="curve" smooth="yes"/>
      <point x="444" y="-300"/>
      <point x="466" y="-278"/>
      <point x="466" y="-250" type="curve" smooth="yes"/>
      <point x="466" y="-222"/>
      <point x="444" y="-200"/>
      <point x="416" y="-200" type="curve" smooth="yes"/>
      <point x="388" y="-200"/>
      <point x="366" y="-222"/>
      <point x="366" y="-250" type="curve" smooth="yes"/>
      <point x="366" y="-278"/>
      <point x="388" y="-300"/>
    </contour>
  </outline>
</glyph>
<glyph name="px.ix4.iy5" format="2">
  <advance width="100"/>
  <outline>
    <contour>
      <point x="528" y="500" type="curve" smooth="yes"/>
      <point x="556" y="500"/>
      <point x="578" y="522"/>
      <point x="578" y="550" type="curve" smooth="yes"/>
      <point x="578" y="578"/>
      <point x="556" y="600"/>
      <point x="528" y="600" type="curve" smooth="yes"/>
      <point x="500" y="600"/>
      <point x="478" y="578"/>
      <point x="478" y="550" type="curve" smooth="yes"/>
      <point x="478" y="522"/>
      <point x="500" y="500"/>
    </contour>
  </outline>
</glyph>
<glyph name="px.ix4.iy7" format="2">
  <advance width="100"/>
  <outline>
    <contour>
      <point x="556" y="700" type="curve" smooth="yes"/>
      <point x="584" y="700"/>
      <point x="606" y="722"/>
      <point x="606" y="750" type="curve" smooth="yes"/>
      <point x="606" y="778"/>
      <point x="584" y="800"/>
      <point x="556" y="800" type="curve" smooth="yes"/>
      <point x="528" y="800"/>
      <point x="506" y="778"/>
      <point x="506" y="750" type="curve" smooth="yes"/>
      <point x="506" y="722"/>
      <point x="528" y="700"/>
    </contour>
  </outline>
</glyph>
<glyph name="px.ix4.iy8" format="2">
  <advance width="100"/>
  <outline>
    <contour>
      <point x="570" y="800" type="curve" smooth="yes"/>
      <point x="598" y="800"/>
      <point x="620" y="822"/>
      <point x="620" y="850" type="curve" smooth="yes"/>
      <point x="620" y="878"/>
      <point x="598" y="900"/>
      <point x="570" y="900" type="curve" smooth="yes"/>
      <point x="542" y="900"/>
      <point x="520" y="878"/>
      <point x="520" y="850" type="curve" smooth="yes"/>
      <point x="520" y="822"/>
      <point x="542" y="800"/>
    </contour>
  </outline>
</glyph>
<glyph name="px.ix5.iy-2" format="2">
  <advance width="100"/>
  <outline>
    <contour>
      <point x="530" y="-200" type="curve" smooth="yes"/>
      <point x="558" y="-200"/>
      <point x="580" y="-178"/>
      <point x="580" y="-150" type="curve" smooth="yes"/>
      <point x="580" y="-122"/>
      <point x="558" y="-100"/>
      <point x="530" y="-100" type="curve" smooth="yes"/>
      <point x="502" y="-100"/>
      <point x="480" y="-122"/>
      <point x="480" y="-150" type="curve" smooth="yes"/>
      <point x="480" y="-178"/>
      <point x="502" y="-200"/>
    </contour>
  </outline>
</glyph>
<glyph name="px.ix5.iy1" format="2">
  <advance width="100"/>
  <outline>
    <contour>
      <point x="572" y="100" type="curve" smooth="yes"/>
      <point x="600" y="100"/>
      <point x="622" y="122"/>
      <point x="622" y="150" type="curve" smooth="yes"/>
      <point x="622" y="178"/>
      <point x="600" y="200"/>
      <point x="572" y="200" type="curve" smooth="yes"/>
      <point x="544" y="200"/>
      <point x="522" y="178"/>
      <point x="522" y="150" type="curve" smooth="yes"/>
      <point x="522" y="122"/>
      <point x="544" y="100"/>
    </contour>
  </outline>
</glyph>
<glyph name="px.ix5.iy3" format="2">
  <advance width="100"/>
  <outline>
    <contour>
      <point x="600" y="300" type="curve" smooth="yes"/>
      <point x="628" y="300"/>
      <point x="650" y="322"/>
      <point x="650" y="350" type="curve" smooth="yes"/>
      <point x="650" y="378"/>
      <point x="628" y="400"/>
      <point x="600" y="400" type="curve" smooth="yes"/>
      <point x="572" y="400"/>
      <point x="550" y="378"/>
      <point x="550" y="350" type="curve" smooth="yes"/>
      <point x="550" y="322"/>
      <point x="572" y="300"/>
    </contour>
  </outline>
</glyph>
<glyph name="px.ix5.iy5" format="2">
  <advance width="100"/>
  <outline>
    <contour>
      <point x="628" y="500" type="curve" smooth="yes"/>
      <point x="656" y="500"/>
      <point x="678" y="522"/>
      <point x="678" y="550" type="curve" smooth="yes"/>
      <point x="678" y="578"/>
      <point x="656" y="600"/>
      <point x="628" y="600" type="curve" smooth="yes"/>
      <point x="600" y="600"/>
      <point x="578" y="578"/>
      <point x="578" y="550" type="curve" smooth="yes"/>
      <point x="578" y="522"/>
      <point x="600" y="500"/>
    </contour>
  </outline>
</glyph>
<glyph name="px.ix5.iy6" format="2">
  <advance width="100"/>
  <outline>
    <contour>
      <point x="642" y="600" type="curve" smooth="yes"/>
      <point x="670" y="600"/>
      <point x="692" y="622"/>
      <point x="692" y="650" type="curve" smooth="yes"/>
      <point x="692" y="678"/>
      <point x="670" y="700"/>
      <point x="642" y="700" type="curve" smooth="yes"/>
      <point x="614" y="700"/>
      <point x="592" y="678"/>
      <point x="592" y="650" type="curve" smooth="yes"/>
      <point x="592" y="622"/>
      <point x="614" y="600"/>
    </contour>
  </outline>
</glyph>
<glyph name="px.ix5.iy7" format="2">
  <advance width="100"/>
  <outline>
    <contour>
      <point x="656" y="700" type="curve" smooth="yes"/>
      <point x="684" y="700"/>
      <point x="706" y="722"/>
      <point x="706" y="750" type="curve" smooth="yes"/>
      <point x="706" y="778"/>
      <point x="684" y="800"/>
      <point x="656" y="800" type="curve" smooth="yes"/>
      <point x="628" y="800"/>
      <point x="606" y="778"/>
      <point x="606" y="750" type="curve" smooth="yes"/>
      <point x="606" y="722"/>
      <point x="628" y="700"/>
    </contour>
  </outline>
</glyph>
<glyph name="px.ix5.iy8" format="2">
  <advance width="100"/>
  <outline>
    <contour>
      <point x="670" y="800" type="curve" smooth="yes"/>
      <point x="698" y="800"/>
      <point x="720" y="822"/>
      <point x="720" y="850" type="curve" smooth="yes"/>
      <point x="720" y="878"/>
      <point x="698" y="900"/>
      <point x="670" y="900" type="curve" smooth="yes"/>
      <point x="642" y="900"/>
      <point x="620" y="878"/>
      <point x="620" y="850" type="curve" smooth="yes"/>
      <point x="620" y="822"/>
      <point x="642" y="800"/>
    </contour>
  </outline>
</glyph>
<glyph name="px.ix6.iy-1" format="2">
  <advance width="100"/>
  <outline>
    <contour>
      <point x="644" y="-100" type="curve" smooth="yes"/>
      <point x="672" y="-100"/>
      <point x="694" y="-78"/>
      <point x="694" y="-50" type="curve" smooth="yes"/>
      <point x="694" y="-22"/>
      <point x="672" y="0"/>
      <point x="644" y="0" type="curve" smooth="yes"/>
      <point x="616" y="0"/>
      <point x="594" y="-22"/>
      <point x="594" y="-50" type="curve" smooth="yes"/>
      <point x="594" y="-78"/>
      <point x="616" y="-100"/>
    </contour>
  </outline>
</glyph>
<glyph name="px.ix6.iy-2" format="2">
  <advance width="100"/>
  <outline>
    <contour>
      <point x="630" y="-200" type="curve" smooth="yes"/>
      <point x="658" y="-200"/>
      <point x="680" y="-178"/>
      <point x="680" y="-150" type="curve" smooth="yes"/>
      <point x="680" y="-122"/>
      <point x="658" y="-100"/>
      <point x="630" y="-100" type="curve" smooth="yes"/>
      <point x="602" y="-100"/>
      <point x="580" y="-122"/>
      <point x="580" y="-150" type="curve" smooth="yes"/>
      <point x="580" y="-178"/>
      <point x="602" y="-200"/>
    </contour>
  </outline>
</glyph>
<glyph name="px.ix6.iy1" format="2">
  <advance width="100"/>
  <outline>
    <contour>
      <point x="672" y="100" type="curve" smooth="yes"/>
      <point x="700" y="100"/>
      <point x="722" y="122"/>
      <point x="722" y="150" type="curve" smooth="yes"/>
      <point x="722" y="178"/>
      <point x="700" y="200"/>
      <point x="672" y="200" type="curve" smooth="yes"/>
      <point x="644" y="200"/>
      <point x="622" y="178"/>
      <point x="622" y="150" type="curve" smooth="yes"/>
      <point x="622" y="122"/>
      <point x="644" y="100"/>
    </contour>
  </outline>
</glyph>
<glyph name="px.ix6.iy2" format="2">
  <advance width="100"/>
  <outline>
    <contour>
      <point x="686" y="200" type="curve" smooth="yes"/>
      <point x="714" y="200"/>
      <point x="736" y="222"/>
      <point x="736" y="250" type="curve" smooth="yes"/>
      <point x="736" y="278"/>
      <point x="714" y="300"/>
      <point x="686" y="300" type="curve" smooth="yes"/>
      <point x="658" y="300"/>
      <point x="636" y="278"/>
      <point x="636" y="250" type="curve" smooth="yes"/>
      <point x="636" y="222"/>
      <point x="658" y="200"/>
    </contour>
  </outline>
</glyph>
<glyph name="px.ix6.iy3" format="2">
  <advance width="100"/>
  <outline>
    <contour>
      <point x="700" y="300" type="curve" smooth="yes"/>
      <point x="728" y="300"/>
      <point x="750" y="322"/>
      <point x="750" y="350" type="curve" smooth="yes"/>
      <point x="750" y="378"/>
      <point x="728" y="400"/>
      <point x="700" y="400" type="curve" smooth="yes"/>
      <point x="672" y="400"/>
      <point x="650" y="378"/>
      <point x="650" y="350" type="curve" smooth="yes"/>
      <point x="650" y="322"/>
      <point x="672" y="300"/>
    </contour>
  </outline>
</glyph>
<glyph name="px.ix6.iy4" format="2">
  <advance width="100"/>
  <outline>
    <contour>
      <point x="714" y="400" type="curve" smooth="yes"/>
      <point x="742" y="400"/>
      <point x="764" y="422"/>
      <point x="764" y="450" type="curve" smooth="yes"/>
      <point x="764" y="478"/>
      <point x="742" y="500"/>
      <point x="714" y="500" type="curve" smooth="yes"/>
      <point x="686" y="500"/>
      <point x="664" y="478"/>
      <point x="664" y="450" type="curve" smooth="yes"/>
      <point x="664" y="422"/>
      <point x="686" y="400"/>
    </contour>
  </outline>
</glyph>
<glyph name="px.ix6.iy7" format="2">
  <advance width="100"/>
  <outline>
    <contour>
      <point x="756" y="700" type="curve" smooth="yes"/>
      <point x="784" y="700"/>
      <point x="806" y="722"/>
      <point x="806" y="750" type="curve" smooth="yes"/>
      <point x="806" y="778"/>
      <point x="784" y="800"/>
      <point x="756" y="800" type="curve" smooth="yes"/>
      <point x="728" y="800"/>
      <point x="706" y="778"/>
      <point x="706" y="750" type="curve" smooth="yes"/>
      <point x="706" y="722"/>
      <point x="728" y="700"/>
    </contour>
  </outline>
</glyph>
<glyph name="px.ix6.iy8" format="2">
  <advance width="100"/>
  <outline>
    <contour>
      <point x="770" y="800" type="curve" smooth="yes"/>
      <point x="798" y="800"/>
      <point x="820" y="822"/>
      <point x="820" y="850" type="curve" smooth="yes"/>
      <point x="820" y="878"/>
      <point x="798" y="900"/>
      <point x="770" y="900" type="curve" smooth="yes"/>
      <point x="742" y="900"/>
      <point x="720" y="878"/>
      <point x="720" y="850" type="curve" smooth="yes"/>
      <point x="720" y="822"/>
      <point x="742" y="800"/>
    </contour>
  </outline>
</glyph>
<glyph name="px.ix6.iy9" format="2">
  <advance width="100"/>
  <outline>
    <contour>
      <point x="784" y="900" type="curve" smooth="yes"/>
      <point x="812" y="900"/>
      <point x="834" y="922"/>
      <point x="834" y="950" type="curve" smooth="yes"/>
      <point x="834" y="978"/>
      <point x="812" y="1000"/>
      <point x="784" y="1000" type="curve" smooth="yes"/>
      <point x="756" y="1000"/>
      <point x="734" y="978"/>
      <point x="734" y="950" type="curve" smooth="yes"/>
      <point x="734" y="922"/>
      <point x="756" y="900"/>
    </contour>
  </outline>
</glyph>
<glyph name="px.ix7.iy-3" format="2">
  <advance width="100"/>
  <outline>
    <contour>
      <point x="716" y="-300" type="curve" smooth="yes"/>
      <point x="744" y="-300"/>
      <point x="766" y="-278"/>
      <point x="766" y="-250" type="curve" smooth="yes"/>
      <point x="766" y="-222"/>
      <point x="744" y="-200"/>
      <point x="716" y="-200" type="curve" smooth="yes"/>
      <point x="688" y="-200"/>
      <point x="666" y="-222"/>
      <point x="666" y="-250" type="curve" smooth="yes"/>
      <point x="666" y="-278"/>
      <point x="688" y="-300"/>
    </contour>
  </outline>
</glyph>
<glyph name="px.ix7.iy0" format="2">
  <advance width="100"/>
  <outline>
    <contour>
      <point x="758" y="0" type="curve" smooth="yes"/>
      <point x="786" y="0"/>
      <point x="808" y="22"/>
      <point x="808" y="50" type="curve" smooth="yes"/>
      <point x="808" y="78"/>
      <point x="786" y="100"/>
      <point x="758" y="100" type="curve" smooth="yes"/>
      <point x="730" y="100"/>
      <point x="708" y="78"/>
      <point x="708" y="50" type="curve" smooth="yes"/>
      <point x="708" y="22"/>
      <point x="730" y="0"/>
    </contour>
  </outline>
</glyph>
<glyph name="px.ix7.iy2" format="2">
  <advance width="100"/>
  <outline>
    <contour>
      <point x="786" y="200" type="curve" smooth="yes"/>
      <point x="814" y="200"/>
      <point x="836" y="222"/>
      <point x="836" y="250" type="curve" smooth="yes"/>
      <point x="836" y="278"/>
      <point x="814" y="300"/>
      <point x="786" y="300" type="curve" smooth="yes"/>
      <point x="758" y="300"/>
      <point x="736" y="278"/>
      <point x="736" y="250" type="curve" smooth="yes"/>
      <point x="736" y="222"/>
      <point x="758" y="200"/>
    </contour>
  </outline>
</glyph>
<glyph name="px.ix7.iy3" format="2">
  <advance width="100"/>
  <outline>
    <contour>
      <point x="800" y="300" type="curve" smooth="yes"/>
      <point x="828" y="300"/>
      <point x="850" y="322"/>
      <point x="850" y="350" type="curve" smooth="yes"/>
      <point x="850" y="378"/>
      <point x="828" y="400"/>
      <point x="800" y="400" type="curve" smooth="yes"/>
      <point x="772" y="400"/>
      <point x="750" y="378"/>
      <point x="750" y="350" type="curve" smooth="yes"/>
      <point x="750" y="322"/>
      <point x="772" y="300"/>
    </contour>
  </outline>
</glyph>
<glyph name="px.ix7.iy4" format="2">
  <advance width="100"/>
  <outline>
    <contour>
      <point x="814" y="400" type="curve" smooth="yes"/>
      <point x="842" y="400"/>
      <point x="864" y="422"/>
      <point x="864" y="450" type="curve" smooth="yes"/>
      <point x="864" y="478"/>
      <point x="842" y="500"/>
      <point x="814" y="500" type="curve" smooth="yes"/>
      <point x="786" y="500"/>
      <point x="764" y="478"/>
      <point x="764" y="450" type="curve" smooth="yes"/>
      <point x="764" y="422"/>
      <point x="786" y="400"/>
    </contour>
  </outline>
</glyph>
<glyph name="px.ix7.iy6" format="2">
  <advance width="100"/>
  <outline>
    <contour>
      <point x="842" y="600" type="curve" smooth="yes"/>
      <point x="870" y="600"/>
      <point x="892" y="622"/>
      <point x="892" y="650" type="curve" smooth="yes"/>
      <point x="892" y="678"/>
      <point x="870" y="700"/>
      <point x="842" y="700" type="curve" smooth="yes"/>
      <point x="814" y="700"/>
      <point x="792" y="678"/>
      <point x="792" y="650" type="curve" smooth="yes"/>
      <point x="792" y="622"/>
      <point x="814" y="600"/>
    </contour>
  </outline>
</glyph>
<glyph name="px.ix7.iy7" format="2">
  <advance width="100"/>
  <outline>
    <contour>
      <point x="856" y="700" type="curve" smooth="yes"/>
      <point x="884" y="700"/>
      <point x="906" y="722"/>
      <point x="906" y="750" type="curve" smooth="yes"/>
      <point x="906" y="778"/>
      <point x="884" y="800"/>
      <point x="856" y="800" type="curve" smooth="yes"/>
      <point x="828" y="800"/>
      <point x="806" y="778"/>
      <point x="806" y="750" type="curve" smooth="yes"/>
      <point x="806" y="722"/>
      <point x="828" y="700"/>
    </contour>
  </outline>
</glyph>
<glyph name="px.ix7.iy9" format="2">
  <advance width="100"/>
  <outline>
    <contour>
      <point x="884" y="900" type="curve" smooth="yes"/>
      <point x="912" y="900"/>
      <point x="934" y="922"/>
      <point x="934" y="950" type="curve" smooth="yes"/>
      <point x="934" y="978"/>
      <point x="912" y="1000"/>
      <point x="884" y="1000" type="curve" smooth="yes"/>
      <point x="856" y="1000"/>
      <point x="834" y="978"/>
      <point x="834" y="950" type="curve" smooth="yes"/>
      <point x="834" y="922"/>
      <point x="856" y="900"/>
    </contour>
  </outline>
</glyph>
<glyph name="px.ix8.iy-1" format="2">
  <advance width="100"/>
  <outline>
    <contour>
      <point x="844" y="-100" type="curve" smooth="yes"/>
      <point x="872" y="-100"/>
      <point x="894" y="-78"/>
      <point x="894" y="-50" type="curve" smooth="yes"/>
      <point x="894" y="-22"/>
      <point x="872" y="0"/>
      <point x="844" y="0" type="curve" smooth="yes"/>
      <point x="816" y="0"/>
      <point x="794" y="-22"/>
      <point x="794" y="-50" type="curve" smooth="yes"/>
      <point x="794" y="-78"/>
      <point x="816" y="-100"/>
    </contour>
  </outline>
</glyph>
<glyph name="px.ix8.iy-2" format="2">
  <advance width="100"/>
  <outline>
    <contour>
      <point x="830" y="-200" type="curve" smooth="yes"/>
      <point x="858" y="-200"/>
      <point x="880" y="-178"/>
      <point x="880" y="-150" type="curve" smooth="yes"/>
      <point x="880" y="-122"/>
      <point x="858" y="-100"/>
      <point x="830" y="-100" type="curve" smooth="yes"/>
      <point x="802" y="-100"/>
      <point x="780" y="-122"/>
      <point x="780" y="-150" type="curve" smooth="yes"/>
      <point x="780" y="-178"/>
      <point x="802" y="-200"/>
    </contour>
  </outline>
</glyph>
<glyph name="px.ix8.iy0" format="2">
  <advance width="100"/>
  <outline>
    <contour>
      <point x="858" y="0" type="curve" smooth="yes"/>
      <point x="886" y="0"/>
      <point x="908" y="22"/>
      <point x="908" y="50" type="curve" smooth="yes"/>
      <point x="908" y="78"/>
      <point x="886" y="100"/>
      <point x="858" y="100" type="curve" smooth="yes"/>
      <point x="830" y="100"/>
      <point x="808" y="78"/>
      <point x="808" y="50" type="curve" smooth="yes"/>
      <point x="808" y="22"/>
      <point x="830" y="0"/>
    </contour>
  </outline>
</glyph>
<glyph name="px.ix8.iy1" format="2">
  <advance width="100"/>
  <outline>
    <contour>
      <point x="872" y="100" type="curve" smooth="yes"/>
      <point x="900" y="100"/>
      <point x="922" y="122"/>
      <point x="922" y="150" type="curve" smooth="yes"/>
      <point x="922" y="178"/>
      <point x="900" y="200"/>
      <point x="872" y="200" type="curve" smooth="yes"/>
      <point x="844" y="200"/>
      <point x="822" y="178"/>
      <point x="822" y="150" type="curve" smooth="yes"/>
      <point x="822" y="122"/>
      <point x="844" y="100"/>
    </contour>
  </outline>
</glyph>
<glyph name="px.ix8.iy2" format="2">
  <advance width="100"/>
  <outline>
    <contour>
      <point x="886" y="200" type="curve" smooth="yes"/>
      <point x="914" y="200"/>
      <point x="936" y="222"/>
      <point x="936" y="250" type="curve" smooth="yes"/>
      <point x="936" y="278"/>
      <point x="914" y="300"/>
      <point x="886" y="300" type="curve" smooth="yes"/>
      <point x="858" y="300"/>
      <point x="836" y="278"/>
      <point x="836" y="250" type="curve" smooth="yes"/>
      <point x="836" y="222"/>
      <point x="858" y="200"/>
    </contour>
  </outline>
</glyph>
<glyph name="px.ix8.iy4" format="2">
  <advance width="100"/>
  <outline>
    <contour>
      <point x="914" y="400" type="curve" smooth="yes"/>
      <point x="942" y="400"/>
      <point x="964" y="422"/>
      <point x="964" y="450" type="curve" smooth="yes"/>
      <point x="964" y="478"/>
      <point x="942" y="500"/>
      <point x="914" y="500" type="curve" smooth="yes"/>
      <point x="886" y="500"/>
      <point x="864" y="478"/>
      <point x="864" y="450" type="curve" smooth="yes"/>
      <point x="864" y="422"/>
      <point x="886" y="400"/>
    </contour>
  </outline>
</glyph>
<glyph name="px.ix8.iy5" format="2">
  <advance width="100"/>
  <outline>
    <contour>
      <point x="928" y="500" type="curve" smooth="yes"/>
      <point x="956" y="500"/>
      <point x="978" y="522"/>
      <point x="978" y="550" type="curve" smooth="yes"/>
      <point x="978" y="578"/>
      <point x="956" y="600"/>
      <point x="928" y="600" type="curve" smooth="yes"/>
      <point x="900" y="600"/>
      <point x="878" y="578"/>
      <point x="878" y="550" type="curve" smooth="yes"/>
      <point x="878" y="522"/>
      <point x="900" y="500"/>
    </contour>
  </outline>
</glyph>
<glyph name="px.ix8.iy8" format="2">
  <advance width="100"/>
  <outline>
    <contour>
      <point x="970" y="800" type="curve" smooth="yes"/>
      <point x="998" y="800"/>
      <point x="1020" y="822"/>
      <point x="1020" y="850" type="curve" smooth="yes"/>
      <point x="1020" y="878"/>
      <point x="998" y="900"/>
      <point x="970" y="900" type="curve" smooth="yes"/>
      <point x="942" y="900"/>
      <point x="920" y="878"/>
      <point x="920" y="850" type="curve" smooth="yes"/>
      <point x="920" y="822"/>
      <point x="942" y="800"/>
    </contour>
  </outline>
</glyph>
<glyph name="px.ix8.iy9" format="2">
  <advance width="100"/>
  <outline>
    <contour>
      <point x="984" y="900" type="curve" smooth="yes"/>
      <point x="1012" y="900"/>
      <point x="1034" y="922"/>
      <point x="1034" y="950" type="curve" smooth="yes"/>
      <point x="1034" y="978"/>
      <point x="1012" y="1000"/>
      <point x="984" y="1000" type="curve" smooth="yes"/>
      <point x="956" y="1000"/>
      <point x="934" y="978"/>
      <point x="934" y="950" type="curve" smooth="yes"/>
      <point x="934" y="922"/>
      <point x="956" y="900"/>
    </contour>
  </outline>
</glyph>
<glyph name="px.ix9.iy0" format="2">
  <advance width="100"/>
  <outline>
    <contour>
      <point x="958" y="0" type="curve" smooth="yes"/>
      <point x="986" y="0"/>
      <point x="1008" y="22"/>
      <point x="1008" y="50" type="curve" smooth="yes"/>
      <point x="1008" y="78"/>
      <point x="986" y="100"/>
      <point x="958" y="100" type="curve" smooth="yes"/>
      <point x="930" y="100"/>
      <point x="908" y="78"/>
      <point x="908" y="50" type="curve" smooth="yes"/>
      <point x="908" y="22"/>
      <point x="930" y="0"/>
    </contour>
  </outline>
</glyph>
<glyph name="px.ix9.iy1" format="2">
  <advance width="100"/>
  <outline>
    <contour>
      <point x="972" y="100" type="curve" smooth="yes"/>
      <point x="1000" y="100"/>
      <point x="1022" y="122"/>
      <point x="1022" y="150" type="curve" smooth="yes"/>
      <point x="1022" y="178"/>
      <point x="1000" y="200"/>
      <point x="972" y="200" type="curve" smooth="yes"/>
      <point x="944" y="200"/>
      <point x="922" y="178"/>
      <point x="922" y="150" type="curve" smooth="yes"/>
      <point x="922" y="122"/>
      <point x="944" y="100"/>
    </contour>
  </outline>
</glyph>
<glyph name="px.ix9.iy3" format="2">
  <advance width="100"/>
  <outline>
    <contour>
      <point x="1000" y="300" type="curve" smooth="yes"/>
      <point x="1028" y="300"/>
      <point x="1050" y="322"/>
      <point x="1050" y="350" type="curve" smooth="yes"/>
      <point x="1050" y="378"/>
      <point x="1028" y="400"/>
      <point x="1000" y="400" type="curve" smooth="yes"/>
      <point x="972" y="400"/>
      <point x="950" y="378"/>
      <point x="950" y="350" type="curve" smooth="yes"/>
      <point x="950" y="322"/>
      <point x="972" y="300"/>
    </contour>
  </outline>
</glyph>
<glyph name="px.ix9.iy4" format="2">
  <advance width="100"/>
  <outline>
    <contour>
      <point x="1014" y="400" type="curve" smooth="yes"/>
      <point x="1042" y="400"/>
      <point x="1064" y="422"/>
      <point x="1064" y="450" type="curve" smooth="yes"/>
      <point x="1064" y="478"/>
      <point x="1042" y="500"/>
      <point x="1014" y="500" type="curve" smooth="yes"/>
      <point x="986" y="500"/>
      <point x="964" y="478"/>
      <point x="964" y="450" type="curve" smooth="yes"/>
      <point x="964" y="422"/>
      <point x="986" y="400"/>
    </contour>
  </outline>
</glyph>
<glyph name="px.ix9.iy6" format="2">
  <advance width="100"/>
  <outline>
    <contour>
      <point x="1042" y="600" type="curve" smooth="yes"/>
      <point x="1070" y="600"/>
      <point x="1092" y="622"/>
      <point x="1092" y="650" type="curve" smooth="yes"/>
      <point x="1092" y="678"/>
      <point x="1070" y="700"/>
      <point x="1042" y="700" type="curve" smooth="yes"/>
      <point x="1014" y="700"/>
      <point x="992" y="678"/>
      <point x="992" y="650" type="curve" smooth="yes"/>
      <point x="992" y="622"/>
      <point x="1014" y="600"/>
    </contour>
  </outline>
</glyph>
<glyph name="px.ix9.iy8" format="2">
  <advance width="100"/>
  <outline>
    <contour>
      <point x="1070" y="800" type="curve" smooth="yes"/>
      <point x="1098" y="800"/>
      <point x="1120" y="822"/>
      <point x="1120" y="850" type="curve" smooth="yes"/>
      <point x="1120" y="878"/>
      <point x="1098" y="900"/>
      <point x="1070" y="900" type="curve" smooth="yes"/>
      <point x="1042" y="900"/>
      <point x="1020" y="878"/>
      <point x="1020" y="850" type="curve" smooth="yes"/>
      <point x="1020" y="822"/>
      <point x="1042" y="800"/>
    </contour>
  </outline>
</glyph>
<glyph name="px.ix9.iy9" format="2">
  <advance width="100"/>
  <outline>
    <contour>
      <point x="1084" y="900" type="curve" smooth="yes"/>
      <point x="1112" y="900"/>
      <point x="1134" y="922"/>
      <point x="1134" y="950" type="curve" smooth="yes"/>
      <point x="1134" y="978"/>
      <point x="1112" y="1000"/>
      <point x="1084" y="1000" type="curve" smooth="yes"/>
      <point x="1056" y="1000"/>
      <point x="1034" y="978"/>
      <point x="1034" y="950" type="curve" smooth="yes"/>
      <point x="1034" y="922"/>
      <point x="1056" y="900"/>
    </contour>
  </outline>
</glyph>
